<?xml version="1.0" encoding="utf-8"?>
<!-- Generator: Adobe Illustrator 19.0.1, SVG Export Plug-In . SVG Version: 6.00 Build 0)  -->
<!DOCTYPE svg PUBLIC "-//W3C//DTD SVG 1.1//EN" "http://www.w3.org/Graphics/SVG/1.1/DTD/svg11.dtd">
<svg version="1.1" id="Layer_1" xmlns="http://www.w3.org/2000/svg" xmlns:xlink="http://www.w3.org/1999/xlink" x="0px" y="0px"
	 viewBox="0 0 417 521" style="enable-background:new 0 0 417 521;" xml:space="preserve">
<style type="text/css">
	.st0{fill:#FFFFFF;}
	.st1{fill:#07928D;}
	.st2{opacity:0.3;}
	.st3{fill:#1F5468;}
	.st4{fill:none;stroke:#B7B7C4;stroke-width:19;stroke-miterlimit:10;}
	.st5{fill:none;stroke:#B7B7C4;stroke-width:40;stroke-miterlimit:10;}
	.st6{fill:none;stroke:#B7B7C4;stroke-width:70;stroke-miterlimit:10;}
	.st7{fill:#C5DADD;}
	.st8{fill:#60CAF2;}
	.st9{fill:none;stroke:#60CAF2;stroke-width:40;stroke-miterlimit:10;}
</style>
<rect x="-1660.4" y="-485.4" width="417.3" height="370"/>
<rect x="-1085.7" y="-858.2" width="351.3" height="133.5"/>
<rect x="-532.4" y="-1177.6" width="351.3" height="27.8"/>
<rect x="-532" y="-1094.5" width="351.3" height="27.8"/>
<rect x="-532" y="-1011.3" width="351.3" height="27.8"/>
<rect x="-532" y="-928.2" width="351.3" height="27.8"/>
<rect x="-532" y="-845.1" width="351.3" height="27.8"/>
<g>
	<g>
		<path d="M226.7-705.3c0,0,1,0.1,3,0.4c0.5,0.1,1,0.1,1.6,0.2c0.3,0,0.6,0.1,0.9,0.1c0.4,0.1,0.7,0.1,1.1,0.2
			c1.6,0.3,3.4,0.6,5.4,1c3.9,0.9,8.6,1.9,13.9,3.7c5.3,1.8,11.2,4.1,17.4,7.5c6.1,3.4,12.4,7.8,18.2,13.4c2.9,2.8,5.7,5.9,8.2,9.3
			c1.3,1.7,2.4,3.5,3.6,5.3c0.6,0.9,1.1,1.9,1.7,2.8c0.6,0.9,1.1,1.9,1.6,2.9c2,3.9,3.7,8,5.1,12.2c1.4,4.2,2.4,8.6,3.2,13
			c0.8,4.4,1.1,8.9,1.2,13.4c0.1,4.5-0.1,9-0.6,13.4c-0.1,1.1-0.2,2.2-0.4,3.3l-0.5,3.3l-0.1,0.8c-0.1,0.5,0,0.2-0.1,0.3l0,0.1
			l0,0.2l-0.1,0.4l-0.3,1.5l-0.2,0.8l-0.2,0.9l-0.5,1.8c-1.4,4.6-3.4,8.8-5.9,12.7c-2.5,3.9-5.3,7.3-8.4,10.4
			c-3.1,3.1-6.3,5.8-9.7,8.3c-6.7,4.9-13.6,8.7-20.4,11.9c-6.7,3.1-13.3,5.6-19.4,7.6c-6.1,2-11.8,3.6-16.8,4.9
			c-5,1.2-9.5,2.2-13.1,2.9c-3.6,0.7-6.5,1.3-8.5,1.6c-2,0.3-3,0.5-3,0.5L204-536c0,0,1-0.2,2.9-0.7c1.9-0.4,4.7-1.1,8.3-2.1
			c3.5-0.9,7.8-2.2,12.7-3.7c4.9-1.5,10.3-3.4,16.1-5.7c5.8-2.3,11.9-5.1,18.2-8.5c6.2-3.4,12.5-7.4,18.3-12.2
			c5.8-4.8,11-10.5,14.7-17c1.8-3.2,3.2-6.8,4.1-10.2c0.8-3.3,1.2-7.6,1.4-11.5c0.2-4,0.1-8-0.2-11.9c-0.3-3.9-0.9-7.8-1.8-11.5
			c-0.8-3.7-1.9-7.4-3.3-10.8c-1.4-3.4-2.9-6.7-4.8-9.7c-0.4-0.8-0.9-1.5-1.4-2.2c-0.5-0.7-1-1.5-1.5-2.2c-1.1-1.4-2-2.8-3.2-4
			c-2.2-2.6-4.6-4.9-7-7c-4.9-4.2-10.1-7.4-15.3-9.8c-5.1-2.4-10.1-4.1-14.7-5.3c-4.5-1.2-8.6-1.9-12-2.4c-1.6-0.2-3.1-0.4-4.4-0.5
			c-0.3,0-0.6-0.1-0.9-0.1c-0.3,0-0.6,0-1-0.1c-0.6,0-1.2-0.1-1.6-0.1c-2-0.1-3-0.2-3-0.2L226.7-705.3z"/>
		<g>
			<path d="M144.3-528c27.1-13.6,60.1-35.4,79.7-56.8l-11.8,49.2l22.4,45.3C210.7-506.7,173.7-520.7,144.3-528z"/>
		</g>
	</g>
</g>
<path d="M-128.7-875.3c0,0,30.6,37.3,34,69.1s-49.2,46-49.2,46l4.4-37.1l-84.5,74l118.4,14.7l-29.4-24.1c0,0,77-6,88.3-52.7
	C-35.3-832-85.4-864-128.7-875.3z"/>
<rect x="-1085.7" y="-1172.6" width="351.3" height="27.8"/>
<rect x="-1085.7" y="-1110.3" width="351.3" height="27.8"/>
<rect x="-1085.7" y="-1047.9" width="351.3" height="27.8"/>
<rect x="-1085.7" y="-923.2" width="351.3" height="27.8"/>
<rect x="-1085.7" y="-985.6" width="351.3" height="27.8"/>
<rect x="-967" y="-827.1" class="st0" width="203.3" height="27.8"/>
<rect x="-1060.3" y="-798.4" class="st0" width="63.7" height="19"/>
<rect x="-1038" y="-820.7" class="st0" width="19" height="63.7"/>
<rect x="-967" y="-780.1" class="st0" width="203.3" height="27.8"/>
<rect x="-1586.9" y="-865.4" width="307.8" height="140.7"/>
<rect x="-1627.7" y="-1172.6" width="351.3" height="27.8"/>
<rect x="-1627.7" y="-1110.3" width="351.3" height="27.8"/>
<rect x="-1627.7" y="-1047.9" width="351.3" height="27.8"/>
<rect x="-1627.7" y="-923.2" width="351.3" height="27.8"/>
<rect x="-1627.7" y="-985.6" width="351.3" height="27.8"/>
<rect x="-1627.7" y="-451.6" class="st0" width="342.9" height="27.8"/>
<rect x="-1627.7" y="-389.3" class="st0" width="315.3" height="27.8"/>
<rect x="-1627.7" y="-326.9" class="st0" width="340.5" height="27.8"/>
<rect x="-1627.7" y="-202.2" class="st0" width="345.3" height="27.8"/>
<rect x="-1627.7" y="-264.6" class="st0" width="291.9" height="27.8"/>
<rect x="-1554.1" y="-837.1" class="st0" width="242.3" height="27.8"/>
<rect x="-1676.3" y="-807.4" width="63.7" height="19"/>
<rect x="-1654" y="-829.7" width="19" height="63.7"/>
<rect x="-1554.1" y="-780.1" class="st0" width="242.3" height="27.8"/>
<rect x="-925.9" y="-89.4" width="320.8" height="140.7"/>
<rect x="-891.8" y="-61.1" class="st0" width="252.5" height="27.8"/>
<rect x="-1011.3" y="-31.4" width="63.7" height="19"/>
<rect x="-989" y="-53.7" width="19" height="63.7"/>
<rect x="-891.8" y="-4.1" class="st0" width="252.5" height="27.8"/>
<rect x="-1565.1" y="-73.1" width="265.1" height="27.8"/>
<rect x="-1657.3" y="-43.4" width="63.7" height="19"/>
<rect x="-1635" y="-65.7" width="19" height="63.7"/>
<rect x="-1565.1" y="-16.1" width="286.3" height="27.8"/>
<rect x="-1660.4" y="270.6" width="417.3" height="294.6"/>
<rect x="-1627.7" y="304.4" class="st0" width="342.9" height="27.8"/>
<rect x="-1627.7" y="366.7" class="st0" width="315.3" height="27.8"/>
<rect x="-1627.7" y="429.1" class="st0" width="340.5" height="27.8"/>
<rect x="-1627.7" y="491.4" class="st0" width="291.9" height="27.8"/>
<rect x="-1565.1" y="602.9" width="265.1" height="19.9"/>
<rect x="-1657.3" y="632.6" width="63.7" height="19"/>
<rect x="-1635" y="610.3" width="19" height="63.7"/>
<rect x="-1565.1" y="640.9" width="286.3" height="19.9"/>
<rect x="-1565.1" y="678.8" width="286.3" height="19.9"/>
<rect x="-1021.4" y="-481.4" width="417.3" height="370"/>
<rect x="-988.7" y="-447.6" class="st0" width="342.9" height="27.8"/>
<rect x="-988.7" y="-385.3" class="st0" width="315.3" height="27.8"/>
<rect x="-988.7" y="-322.9" class="st0" width="340.5" height="27.8"/>
<rect x="-988.7" y="-198.2" class="st0" width="345.3" height="27.8"/>
<rect x="-988.7" y="-260.6" class="st0" width="291.9" height="27.8"/>
<rect x="-868.9" y="665.5" width="320.8" height="140.7"/>
<rect x="-834.8" y="693.9" class="st0" width="252.5" height="27.8"/>
<rect x="-954.3" y="723.6" width="63.7" height="19"/>
<rect x="-932" y="701.3" width="19" height="63.7"/>
<rect x="-834.8" y="750.9" class="st0" width="252.5" height="27.8"/>
<rect x="-964.4" y="281.5" width="417.3" height="356.2"/>
<rect x="-931.7" y="315.3" class="st0" width="342.9" height="27.8"/>
<rect x="-931.7" y="377.7" class="st0" width="315.3" height="27.8"/>
<rect x="-931.7" y="440.1" class="st0" width="340.5" height="27.8"/>
<rect x="-931.7" y="564.8" class="st0" width="345.3" height="27.8"/>
<rect x="-931.7" y="502.4" class="st0" width="291.9" height="27.8"/>
<polygon points="99,437 67,437 67,405 40,405 40,437 9,437 9,463 40,463 40,495 67,495 67,463 99,463 "/>
<path d="M0,0v356h417V0H0z M32,43h343v28H32V43z M32,123h341v28H32V123z M32,203h292v28H32V203z M378,311H32v-28h346V311z"/>
<path d="M123,381v140h293V381H123z M165,416h196v20H165V416z M377,486H165v-20h212V486z"/>
<rect x="-3817" y="-1128" class="st1" width="1494" height="1494"/>
<g>
	<g class="st2">
		<rect x="-3617" y="-1055.6" class="st3" width="1132" height="960.6"/>
	</g>
	<g>
		<rect x="-3642" y="-1080.6" class="st0" width="1132" height="960.6"/>
	</g>
</g>
<line class="st4" x1="-3554" y1="-866.5" x2="-2642" y2="-866.5"/>
<line class="st4" x1="-3554" y1="-773.5" x2="-2612" y2="-773.5"/>
<line class="st4" x1="-3554" y1="-495.5" x2="-3202" y2="-495.5"/>
<line class="st4" x1="-3554" y1="-587.5" x2="-3212" y2="-587.5"/>
<line class="st4" x1="-3554" y1="-680.5" x2="-3212" y2="-680.5"/>
<line class="st4" x1="-3554" y1="-402.5" x2="-2602" y2="-402.5"/>
<line class="st4" x1="-3554" y1="-309.5" x2="-2672" y2="-309.5"/>
<line class="st4" x1="-3554" y1="-216.5" x2="-2612" y2="-216.5"/>
<g>
	<g class="st2">
		<rect x="-3369" y="-28.1" class="st3" width="884.4" height="334.6"/>
	</g>
	<g>
		<rect x="-3394" y="-53.1" class="st0" width="884.4" height="334.6"/>
	</g>
</g>
<line class="st4" x1="-3306" y1="117.5" x2="-2674" y2="117.5"/>
<line class="st5" x1="-3306" y1="27" x2="-2884" y2="27"/>
<line class="st6" x1="-3554" y1="-982" x2="-2992" y2="-982"/>
<line class="st4" x1="-3306" y1="191.5" x2="-2614" y2="191.5"/>
<rect x="-3128" y="-696" class="st7" width="516" height="214.5"/>
<g>
	<g>
		<polygon class="st0" points="-3463,101 -3573,101 -3573,-10 -3613,-10 -3613,101 -3724,101 -3724,141 -3613,141 -3613,251 
			-3573,251 -3573,141 -3463,141 		"/>
	</g>
	<g>
		<polygon class="st8" points="-3473,91 -3583,91 -3583,-20 -3623,-20 -3623,91 -3734,91 -3734,131 -3623,131 -3623,241 -3583,241 
			-3583,131 -3473,131 		"/>
	</g>
</g>
<line class="st9" x1="-3686" y1="779" x2="-3686" y2="1040"/>
<line class="st9" x1="-3817" y1="910" x2="-3556" y2="910"/>
</svg>
