<?xml version="1.0" encoding="utf-8"?>
<!-- Generator: Adobe Illustrator 19.0.1, SVG Export Plug-In . SVG Version: 6.00 Build 0)  -->
<!DOCTYPE svg PUBLIC "-//W3C//DTD SVG 1.1//EN" "http://www.w3.org/Graphics/SVG/1.1/DTD/svg11.dtd">
<svg version="1.1" id="Layer_1" xmlns="http://www.w3.org/2000/svg" xmlns:xlink="http://www.w3.org/1999/xlink" x="0px" y="0px"
	 viewBox="-242 241 25.6 32" style="enable-background:new -242 241 25.6 32;" xml:space="preserve">
<style type="text/css">
	.st0{fill:#FFFFFF;}
</style>
<path class="st0" d="M-235.9,267.8h-2v-2h-1.7v2h-1.9v1.6h1.9v2h1.7v-2h2V267.8z"/>
<path class="st0" d="M-242,241v21.9h25.6V241H-242z M-240,243.6h21.1v1.7H-240C-240,245.4-240,243.6-240,243.6z M-240,248.6h20.9
	v1.7H-240C-240,250.3-240,248.6-240,248.6z M-240,253.5h17.9v1.7H-240C-240,255.2-240,253.5-240,253.5z M-218.8,260.1H-240v-1.7
	h21.3V260.1z"/>
<path class="st0" d="M-234.4,264.4v8.6h18v-8.6C-216.4,264.4-234.4,264.4-234.4,264.4z M-231.9,266.6h12v1.2h-12
	C-231.9,267.8-231.9,266.6-231.9,266.6z M-218.8,270.9h-13v-1.2h13V270.9z"/>
</svg>
